<svg data-v-decfdd8a="" version="1.0" xmlns="http://www.w3.org/2000/svg" xmlns:xlink="http://www.w3.org/1999/xlink"
    style="" viewBox="0 300 0" width="290px" height="40px">
    <script xmlns="" />
    <g data-v-decfdd8a="" fill="#000000" class="iconlettersvg-g iconlettersvg" transform="">
        <g>
            <g class="tp-name" transform="translate(0,0)">
                <g transform="scale(1)">
                    <g transform="translate(0, 0)">
                        <g class="name-imagesvg">
                            <g>
                                <rect fill="#000000" fill-opacity="0" stroke-width="2" x="0" y="0"
                                    width="40.757055959417706" height="40" class="image-rect" /> <svg x="0" y="0"
                                    width="40.757055959417706" height="40" filtersec="colorsb8070407293"
                                    class="image-svg-svg primary" style="overflow: visible;"><svg
                                        xmlns="http://www.w3.org/2000/svg" viewBox="0 0 29.61 29.06">
                                        <path
                                            d="M29.61 29.06H23.8l-2.66-5.19-6.33-12.45-6.34 12.45-2.65 5.19H0l2.64-5.19L14.81 0 27 23.87z"
                                            fill="#000000" />
                                    </svg></svg>
                                <!---->
                            </g>
                        </g>
                    </g>
                    <g transform="translate(48.757055959417706, 0)">
                        <g class="name-imagesvg">
                            <g>
                                <rect fill="#000000" fill-opacity="0" stroke-width="2" x="0" y="0"
                                    width="7.13253007143661" height="40" class="image-rect" /> <svg x="0" y="0"
                                    width="7.13253007143661" height="40" filtersec="colorsb4229897133"
                                    class="image-svg-svg primary" style="overflow: visible;"><svg
                                        xmlns="http://www.w3.org/2000/svg" viewBox="0 0 5.18 29.05">
                                        <path d="M0 29.05V0h5.18v29.05z" fill="#000000" />
                                    </svg></svg>
                                <!---->
                            </g>
                        </g>
                    </g>
                    <g transform="translate(63.88958603085432, 0)">
                        <g class="name-imagesvg">
                            <g>
                                <rect fill="#000000" fill-opacity="0" stroke-width="2" x="0" y="0"
                                    width="40.757055959417706" height="40" class="image-rect" /> <svg x="0" y="0"
                                    width="40.757055959417706" height="40" filtersec="colorsb6928606310"
                                    class="image-svg-svg primary" style="overflow: visible;"><svg
                                        xmlns="http://www.w3.org/2000/svg" viewBox="0 0 29.61 29.06">
                                        <path
                                            d="M29.61 0L27 5.19 14.81 29.06 2.64 5.19 0 0h5.82l2.65 5.19 6.34 12.45 6.33-12.45L23.8 0z"
                                            fill="#ffffff" />
                                    </svg></svg>
                                <!---->
                            </g>
                        </g>
                    </g>
                    <g transform="translate(112.64664199027203, 0)">
                        <g class="name-imagesvg">
                            <g>
                                <rect fill="#000000" fill-opacity="0" stroke-width="2" x="0" y="0"
                                    width="39.99955012889399" height="40" class="image-rect" /> <svg x="0" y="0"
                                    width="39.99955012889399" height="40" filtersec="colorsb529525116"
                                    class="image-svg-svg primary" style="overflow: visible;"><svg
                                        xmlns="http://www.w3.org/2000/svg" viewBox="0 0 29.04 29.04">
                                        <path
                                            d="M2.42 14.51A8.55 8.55 0 0 1 8.56 0H29v5.18H8.56a3.38 3.38 0 0 0-.16 6.76.47.47 0 0 1 .16 0h5.13v5.2H8.56a.47.47 0 0 1-.16 0 3.39 3.39 0 0 0 .16 6.77H29V29H8.56a8.56 8.56 0 0 1-6.14-14.49z"
                                            fill="#ffffff" />
                                        <path fill="#000000" d="M15.83 17.09v-5.16h5.16v5.16z" />
                                    </svg></svg>
                                <!---->
                            </g>
                        </g>
                    </g>
                    <g transform="translate(160.64619211916602, 0)">
                        <g class="name-imagesvg">
                            <g>
                                <rect fill="#000000" fill-opacity="0" stroke-width="2" x="0" y="0"
                                    width="35.96942819540896" height="40" class="image-rect" /> <svg x="0" y="0"
                                    width="35.96942819540896" height="40" filtersec="colorsb5165113442"
                                    class="image-svg-svg primary" style="overflow: visible;"><svg
                                        xmlns="http://www.w3.org/2000/svg" viewBox="0 0 26.17 29.1">
                                        <path
                                            d="M23.5 23.86l2.64 5.2h-5.81l-2.66-5.2-2.77-5.44-.13-.23a5.15 5.15 0 0 0-4.42-2.49H5.18v6.18H0V0h18.33a7.76 7.76 0 0 1 5.54 2.3A7.86 7.86 0 0 1 21.58 15a7.31 7.31 0 0 1-2.26.63zm-5.17-13.33a2.41 2.41 0 0 0 1.09-.24A2.66 2.66 0 0 0 21 7.85a2.8 2.8 0 0 0-.79-1.91 2.65 2.65 0 0 0-1.87-.76H5.18v5.35z"
                                            fill="#ffffff" />
                                        <path fill="#000000" d="M5.16 23.94v5.16H0v-5.16z" />
                                    </svg></svg>
                                <!---->
                            </g>
                        </g>
                    </g>
                    <g transform="translate(204.61562031457498, 0)">
                        <g class="name-imagesvg">
                            <g>
                                <rect fill="#000000" fill-opacity="0" stroke-width="2" x="0" y="0"
                                    width="37.88964688803656" height="40" class="image-rect" /> <svg x="0" y="0"
                                    width="37.88964688803656" height="40" filtersec="colorsb2750276195"
                                    class="image-svg-svg primary" style="overflow: visible;"><svg
                                        xmlns="http://www.w3.org/2000/svg" viewBox="0 0 27.47 29.04">
                                        <path
                                            d="M5.18 21v.15a2.67 2.67 0 0 0 2.67 2.66h11.79a2.9 2.9 0 0 0 2.66-2.92v-.15c0-1.47-.44-3.1-2.66-3.1H9.2c-2.69 0-9.2-1-9.2-8.5A9.19 9.19 0 0 1 9.2 0h9.09a9.18 9.18 0 0 1 9.18 9.18H22.3a4 4 0 0 0-4-4H9.2a4 4 0 0 0-4 4c0 2.21 1.81 3.31 4 3.31h10.44a7.73 7.73 0 0 1 5.42 2.19 6.56 6.56 0 0 1 1 1.21 9.2 9.2 0 0 1 1.4 4.89v.15A8.07 8.07 0 0 1 19.64 29H7.85A7.86 7.86 0 0 1 0 21.19V21z"
                                            fill="#000000" />
                                    </svg></svg>
                                <!---->
                            </g>
                        </g>
                    </g>
                    <g transform="translate(250.50526720261155, 0)">
                        <g class="name-imagesvg">
                            <g>
                                <rect fill="#000000" fill-opacity="0" stroke-width="2" x="0" y="0"
                                    width="39.99955012889399" height="40" class="image-rect" /> <svg x="0" y="0"
                                    width="39.99955012889399" height="40" filtersec="colorsb1659247896"
                                    class="image-svg-svg primary" style="overflow: visible;"><svg
                                        xmlns="http://www.w3.org/2000/svg" viewBox="0 0 29.04 29.04">
                                        <path
                                            d="M2.42 14.51A8.55 8.55 0 0 1 8.56 0H29v5.18H8.56a3.38 3.38 0 0 0-.16 6.76.47.47 0 0 1 .16 0h5.13v5.2H8.56a.47.47 0 0 1-.16 0 3.39 3.39 0 0 0 .16 6.77H29V29H8.56a8.56 8.56 0 0 1-6.14-14.49z"
                                            fill="#000000" />
                                        <path fill="#ffffff" d="M15.83 17.09v-5.16h5.16v5.16z" />
                                    </svg></svg>
                                <!---->
                            </g>
                        </g>
                    </g>
                </g>
            </g>
        </g>
    </g>
</svg>